<?xml version="1.0" encoding="UTF-8" standalone="no"?>
<!DOCTYPE svg PUBLIC "-//W3C//DTD SVG 1.1//EN"
 "http://www.w3.org/Graphics/SVG/1.1/DTD/svg11.dtd">
<!-- Generated by graphviz version 14.0.5 (20251129.0259)
 -->
<!-- Title: MyGraph Pages: 1 -->
<svg width="1052pt" height="1614pt"
 viewBox="0.00 0.00 1052.00 1614.00" xmlns="http://www.w3.org/2000/svg" xmlns:xlink="http://www.w3.org/1999/xlink">
<g id="graph0" class="graph" transform="scale(1 1) rotate(0) translate(4 1610)">
<title>MyGraph</title>
<polygon fill="white" stroke="none" points="-4,4 -4,-1610 1048,-1610 1048,4 -4,4"/>
<!-- Q -->
<g id="node1" class="node">
<title>Q</title>
<polygon fill="none" stroke="black" points="54,-1347 0,-1347 0,-1311 54,-1311 54,-1347"/>
<text xml:space="preserve" text-anchor="middle" x="27" y="-1323.2" font-family="Helvetica,sans-Serif" font-size="14.00">Q</text>
</g>
<!-- O -->
<g id="node2" class="node">
<title>O</title>
<polygon fill="none" stroke="black" points="144,-1271 90,-1271 90,-1235 144,-1235 144,-1271"/>
<text xml:space="preserve" text-anchor="middle" x="117" y="-1247.2" font-family="Helvetica,sans-Serif" font-size="14.00">O</text>
</g>
<!-- Q&#45;&gt;O -->
<g id="edge1" class="edge">
<title>Q&#45;&gt;O</title>
<path fill="none" stroke="black" d="M49.3,-1310.6C60.35,-1301.06 74.04,-1289.24 86.13,-1278.8"/>
<polygon fill="black" stroke="black" points="88.16,-1281.67 93.44,-1272.48 83.59,-1276.37 88.16,-1281.67"/>
</g>
<!-- L -->
<g id="node3" class="node">
<title>L</title>
<polygon fill="none" stroke="black" points="504,-720 450,-720 450,-684 504,-684 504,-720"/>
<text xml:space="preserve" text-anchor="middle" x="477" y="-696.2" font-family="Helvetica,sans-Serif" font-size="14.00">L</text>
</g>
<!-- Q&#45;&gt;L -->
<g id="edge2" class="edge">
<title>Q&#45;&gt;L</title>
<path fill="none" stroke="black" d="M54.35,-1323.26C128.5,-1305.51 338.4,-1243.67 414,-1099 447.65,-1034.61 467.59,-812.15 473.85,-731.5"/>
<polygon fill="black" stroke="black" points="477.32,-731.99 474.59,-721.75 470.34,-731.45 477.32,-731.99"/>
</g>
<!-- B -->
<g id="node4" class="node">
<title>B</title>
<polygon fill="none" stroke="black" points="324,-902 270,-902 270,-866 324,-866 324,-902"/>
<text xml:space="preserve" text-anchor="middle" x="297" y="-878.2" font-family="Helvetica,sans-Serif" font-size="14.00">B</text>
</g>
<!-- Q&#45;&gt;B -->
<g id="edge3" class="edge">
<title>Q&#45;&gt;B</title>
<path fill="none" stroke="black" d="M30.19,-1310.72C35.5,-1271.43 51.58,-1176.92 90,-1108 136.21,-1025.11 218.99,-948.26 264.27,-909.78"/>
<polygon fill="black" stroke="black" points="266.51,-912.47 271.91,-903.36 262.01,-907.11 266.51,-912.47"/>
</g>
<!-- S -->
<g id="node5" class="node">
<title>S</title>
<polygon fill="none" stroke="black" points="324,-1385 270,-1385 270,-1349 324,-1349 324,-1385"/>
<text xml:space="preserve" text-anchor="middle" x="297" y="-1361.2" font-family="Helvetica,sans-Serif" font-size="14.00">S</text>
</g>
<!-- Q&#45;&gt;S -->
<g id="edge4" class="edge">
<title>Q&#45;&gt;S</title>
<path fill="none" stroke="black" d="M54.43,-1335.62C65.38,-1338.19 78.25,-1341 90,-1343 148.31,-1352.95 216.61,-1360.01 258.07,-1363.8"/>
<polygon fill="black" stroke="black" points="257.75,-1367.28 268.02,-1364.69 258.38,-1360.31 257.75,-1367.28"/>
</g>
<!-- V -->
<g id="node6" class="node">
<title>V</title>
<polygon fill="none" stroke="black" points="774,-1055 720,-1055 720,-1019 774,-1019 774,-1055"/>
<text xml:space="preserve" text-anchor="middle" x="747" y="-1031.2" font-family="Helvetica,sans-Serif" font-size="14.00">V</text>
</g>
<!-- Q&#45;&gt;V -->
<g id="edge5" class="edge">
<title>Q&#45;&gt;V</title>
<path fill="none" stroke="black" d="M32.15,-1347.36C45.99,-1403.32 96.06,-1568 206,-1568 206,-1568 206,-1568 298,-1568 563.02,-1568 703.14,-1176.83 737.53,-1065.97"/>
<polygon fill="black" stroke="black" points="740.78,-1067.31 740.34,-1056.73 734.08,-1065.27 740.78,-1067.31"/>
</g>
<!-- T -->
<g id="node13" class="node">
<title>T</title>
<polygon fill="none" stroke="black" points="1044,-900 990,-900 990,-864 1044,-864 1044,-900"/>
<text xml:space="preserve" text-anchor="middle" x="1017" y="-876.2" font-family="Helvetica,sans-Serif" font-size="14.00">T</text>
</g>
<!-- O&#45;&gt;T -->
<g id="edge26" class="edge">
<title>O&#45;&gt;T</title>
<path fill="none" stroke="black" d="M122.24,-1271.48C140.12,-1344.11 216.33,-1606 386,-1606 386,-1606 386,-1606 838,-1606 983.45,-1606 1010.7,-1048.05 1015.19,-911.76"/>
<polygon fill="black" stroke="black" points="1018.69,-911.88 1015.5,-901.77 1011.69,-911.66 1018.69,-911.88"/>
</g>
<!-- P -->
<g id="node14" class="node">
<title>P</title>
<polygon fill="none" stroke="black" points="234,-490 180,-490 180,-454 234,-454 234,-490"/>
<text xml:space="preserve" text-anchor="middle" x="207" y="-466.2" font-family="Helvetica,sans-Serif" font-size="14.00">P</text>
</g>
<!-- O&#45;&gt;P -->
<g id="edge23" class="edge">
<title>O&#45;&gt;P</title>
<path fill="none" stroke="black" d="M124.45,-1234.79C130.58,-1216.61 139.53,-1187.74 144,-1162 185.82,-921.08 149.78,-855.65 180,-613 184.85,-574.1 193.57,-529.69 199.57,-501.28"/>
<polygon fill="black" stroke="black" points="202.96,-502.14 201.63,-491.63 196.12,-500.67 202.96,-502.14"/>
</g>
<!-- E -->
<g id="node19" class="node">
<title>E</title>
<polygon fill="none" stroke="black" points="414,-1046 360,-1046 360,-1010 414,-1010 414,-1046"/>
<text xml:space="preserve" text-anchor="middle" x="387" y="-1022.2" font-family="Helvetica,sans-Serif" font-size="14.00">E</text>
</g>
<!-- O&#45;&gt;E -->
<g id="edge22" class="edge">
<title>O&#45;&gt;E</title>
<path fill="none" stroke="black" d="M123.26,-1234.66C131.54,-1208.68 149.83,-1160.97 180,-1131 228.51,-1082.81 304.13,-1053.04 349,-1038.58"/>
<polygon fill="black" stroke="black" points="349.76,-1042.01 358.26,-1035.69 347.67,-1035.33 349.76,-1042.01"/>
</g>
<!-- R -->
<g id="node20" class="node">
<title>R</title>
<polygon fill="none" stroke="black" points="864,-900 810,-900 810,-864 864,-864 864,-900"/>
<text xml:space="preserve" text-anchor="middle" x="837" y="-876.2" font-family="Helvetica,sans-Serif" font-size="14.00">R</text>
</g>
<!-- O&#45;&gt;R -->
<g id="edge24" class="edge">
<title>O&#45;&gt;R</title>
<path fill="none" stroke="black" d="M129.55,-1271.24C160.51,-1318.48 250.47,-1445.33 360,-1506 406.05,-1531.51 423.35,-1530 476,-1530 476,-1530 476,-1530 568,-1530 715.08,-1530 714.7,-1405.6 774,-1271 829.16,-1145.8 835.97,-978.73 836.31,-911.68"/>
<polygon fill="black" stroke="black" points="839.81,-911.87 836.31,-901.87 832.81,-911.87 839.81,-911.87"/>
</g>
<!-- N -->
<g id="node21" class="node">
<title>N</title>
<polygon fill="none" stroke="black" points="324,-1176 270,-1176 270,-1140 324,-1140 324,-1176"/>
<text xml:space="preserve" text-anchor="middle" x="297" y="-1152.2" font-family="Helvetica,sans-Serif" font-size="14.00">N</text>
</g>
<!-- O&#45;&gt;N -->
<g id="edge25" class="edge">
<title>O&#45;&gt;N</title>
<path fill="none" stroke="black" d="M144.26,-1238.98C174.76,-1222.7 225.26,-1195.75 259.55,-1177.46"/>
<polygon fill="black" stroke="black" points="261.12,-1180.58 268.29,-1172.79 257.82,-1174.41 261.12,-1180.58"/>
</g>
<!-- L&#45;&gt;V -->
<g id="edge83" class="edge">
<title>L&#45;&gt;V</title>
<path fill="none" stroke="black" d="M504.34,-698.33C528.86,-696.14 565.76,-696.07 594,-710 648.22,-736.75 655.23,-758.83 684,-812 719.06,-876.8 735.59,-963.06 742.23,-1007.6"/>
<polygon fill="black" stroke="black" points="738.73,-1007.84 743.6,-1017.25 745.66,-1006.86 738.73,-1007.84"/>
</g>
<!-- G -->
<g id="node8" class="node">
<title>G</title>
<polygon fill="none" stroke="black" points="684,-857 630,-857 630,-821 684,-821 684,-857"/>
<text xml:space="preserve" text-anchor="middle" x="657" y="-833.2" font-family="Helvetica,sans-Serif" font-size="14.00">G</text>
</g>
<!-- L&#45;&gt;G -->
<g id="edge82" class="edge">
<title>L&#45;&gt;G</title>
<path fill="none" stroke="black" d="M504.39,-705.37C529.62,-709.73 567.63,-719.37 594,-740 617.36,-758.28 634.27,-788 644.47,-810.11"/>
<polygon fill="black" stroke="black" points="641.23,-811.44 648.46,-819.19 647.64,-808.62 641.23,-811.44"/>
</g>
<!-- H -->
<g id="node26" class="node">
<title>H</title>
<polygon fill="none" stroke="black" points="954,-468 900,-468 900,-432 954,-432 954,-468"/>
<text xml:space="preserve" text-anchor="middle" x="927" y="-444.2" font-family="Helvetica,sans-Serif" font-size="14.00">H</text>
</g>
<!-- L&#45;&gt;H -->
<g id="edge84" class="edge">
<title>L&#45;&gt;H</title>
<path fill="none" stroke="black" d="M504.35,-687.18C580.68,-644.24 802.06,-519.72 889.68,-470.43"/>
<polygon fill="black" stroke="black" points="891.36,-473.5 898.36,-465.55 887.93,-467.4 891.36,-473.5"/>
</g>
<!-- B&#45;&gt;V -->
<g id="edge67" class="edge">
<title>B&#45;&gt;V</title>
<path fill="none" stroke="black" d="M324.45,-901.18C335.19,-907.66 347.9,-914.74 360,-920 483.18,-973.57 638.48,-1012.55 708.61,-1028.73"/>
<polygon fill="black" stroke="black" points="707.51,-1032.06 718.03,-1030.88 709.06,-1025.24 707.51,-1032.06"/>
</g>
<!-- B&#45;&gt;G -->
<g id="edge70" class="edge">
<title>B&#45;&gt;G</title>
<path fill="none" stroke="black" d="M324.32,-880.69C387.04,-872.81 545.46,-852.9 618.3,-843.74"/>
<polygon fill="black" stroke="black" points="618.65,-847.22 628.14,-842.5 617.78,-840.28 618.65,-847.22"/>
</g>
<!-- B&#45;&gt;E -->
<g id="edge66" class="edge">
<title>B&#45;&gt;E</title>
<path fill="none" stroke="black" d="M309.15,-902.24C324.29,-927.02 351.49,-971.53 369.14,-1000.41"/>
<polygon fill="black" stroke="black" points="365.95,-1001.91 374.16,-1008.62 371.93,-998.26 365.95,-1001.91"/>
</g>
<!-- B&#45;&gt;R -->
<g id="edge68" class="edge">
<title>B&#45;&gt;R</title>
<path fill="none" stroke="black" d="M324.41,-889.33C359.06,-895.84 421.82,-906 476,-906 476,-906 476,-906 658,-906 706.96,-906 762.82,-896.97 798.7,-889.99"/>
<polygon fill="black" stroke="black" points="799.01,-893.5 808.13,-888.11 797.64,-886.63 799.01,-893.5"/>
</g>
<!-- Y -->
<g id="node24" class="node">
<title>Y</title>
<polygon fill="none" stroke="black" points="504,-666 450,-666 450,-630 504,-630 504,-666"/>
<text xml:space="preserve" text-anchor="middle" x="477" y="-642.2" font-family="Helvetica,sans-Serif" font-size="14.00">Y</text>
</g>
<!-- B&#45;&gt;Y -->
<g id="edge69" class="edge">
<title>B&#45;&gt;Y</title>
<path fill="none" stroke="black" d="M310.01,-865.76C334.72,-828.66 393.65,-742.22 450,-675 450.08,-674.91 450.15,-674.82 450.23,-674.73"/>
<polygon fill="black" stroke="black" points="452.71,-677.21 456.74,-667.41 447.48,-672.55 452.71,-677.21"/>
</g>
<!-- S&#45;&gt;L -->
<g id="edge71" class="edge">
<title>S&#45;&gt;L</title>
<path fill="none" stroke="black" d="M324.46,-1363.18C351.65,-1357.75 392.91,-1345 414,-1316 431.42,-1292.04 465.02,-851.18 473.84,-731.67"/>
<polygon fill="black" stroke="black" points="477.32,-731.96 474.57,-721.73 470.34,-731.45 477.32,-731.96"/>
</g>
<!-- S&#45;&gt;G -->
<g id="edge75" class="edge">
<title>S&#45;&gt;G</title>
<path fill="none" stroke="black" d="M324.48,-1369.07C349.78,-1369.67 387.84,-1366.85 414,-1348 582.12,-1226.88 637.69,-957.84 651.88,-868.49"/>
<polygon fill="black" stroke="black" points="655.3,-869.25 653.35,-858.83 648.38,-868.19 655.3,-869.25"/>
</g>
<!-- S&#45;&gt;T -->
<g id="edge74" class="edge">
<title>S&#45;&gt;T</title>
<path fill="none" stroke="black" d="M308.11,-1385.22C318.88,-1403.14 337.46,-1430.19 360,-1447 404.33,-1480.06 420.7,-1492 476,-1492 476,-1492 476,-1492 838,-1492 960.39,-1492 1004.34,-1033.77 1013.88,-911.62"/>
<polygon fill="black" stroke="black" points="1017.36,-912 1014.63,-901.77 1010.38,-911.47 1017.36,-912"/>
</g>
<!-- S&#45;&gt;E -->
<g id="edge72" class="edge">
<title>S&#45;&gt;E</title>
<path fill="none" stroke="black" d="M302.73,-1348.77C317.18,-1293.13 360.79,-1125.12 378.45,-1057.08"/>
<polygon fill="black" stroke="black" points="381.74,-1058.34 380.87,-1047.78 374.96,-1056.58 381.74,-1058.34"/>
</g>
<!-- S&#45;&gt;R -->
<g id="edge76" class="edge">
<title>S&#45;&gt;R</title>
<path fill="none" stroke="black" d="M309.73,-1385.28C320.66,-1400.47 338.49,-1420.99 360,-1430 382.14,-1439.27 390.81,-1436.17 414,-1430 592.15,-1382.63 667.61,-1374.55 774,-1224 809.71,-1173.47 827.99,-984.41 833.86,-911.21"/>
<polygon fill="black" stroke="black" points="837.32,-911.85 834.6,-901.61 830.34,-911.31 837.32,-911.85"/>
</g>
<!-- D -->
<g id="node23" class="node">
<title>D</title>
<polygon fill="none" stroke="black" points="414,-574 360,-574 360,-538 414,-538 414,-574"/>
<text xml:space="preserve" text-anchor="middle" x="387" y="-550.2" font-family="Helvetica,sans-Serif" font-size="14.00">D</text>
</g>
<!-- S&#45;&gt;D -->
<g id="edge73" class="edge">
<title>S&#45;&gt;D</title>
<path fill="none" stroke="black" d="M300.89,-1348.69C305.99,-1315.92 316.75,-1245.05 324,-1185 351.78,-954.8 375.94,-676.07 383.53,-585.77"/>
<polygon fill="black" stroke="black" points="387.02,-586.06 384.36,-575.81 380.04,-585.48 387.02,-586.06"/>
</g>
<!-- V&#45;&gt;T -->
<g id="edge96" class="edge">
<title>V&#45;&gt;T</title>
<path fill="none" stroke="black" d="M774.18,-1021.86C822.42,-993.96 925.36,-934.42 980.08,-902.78"/>
<polygon fill="black" stroke="black" points="981.49,-906 988.4,-897.96 977.99,-899.94 981.49,-906"/>
</g>
<!-- V&#45;&gt;R -->
<g id="edge97" class="edge">
<title>V&#45;&gt;R</title>
<path fill="none" stroke="black" d="M764.25,-1018.65C767.69,-1014.33 771.14,-1009.63 774,-1005 794.47,-971.81 791.88,-959.52 810,-925 812.6,-920.05 815.53,-914.88 818.46,-909.91"/>
<polygon fill="black" stroke="black" points="821.41,-911.8 823.59,-901.43 815.42,-908.18 821.41,-911.8"/>
</g>
<!-- V&#45;&gt;H -->
<g id="edge98" class="edge">
<title>V&#45;&gt;H</title>
<path fill="none" stroke="black" d="M767.12,-1018.73C796.93,-989.8 852.3,-934.15 864,-909 899.86,-831.88 918.79,-568.77 924.29,-479.73"/>
<polygon fill="black" stroke="black" points="927.77,-480.07 924.88,-469.87 920.78,-479.64 927.77,-480.07"/>
</g>
<!-- Z -->
<g id="node7" class="node">
<title>Z</title>
<polygon fill="none" stroke="black" points="54,-536 0,-536 0,-500 54,-500 54,-536"/>
<text xml:space="preserve" text-anchor="middle" x="27" y="-512.2" font-family="Helvetica,sans-Serif" font-size="14.00">Z</text>
</g>
<!-- Z&#45;&gt;O -->
<g id="edge7" class="edge">
<title>Z&#45;&gt;O</title>
<path fill="none" stroke="black" d="M28.54,-536.36C31.08,-613.31 43.66,-917.27 90,-1162 93.99,-1183.06 100.66,-1206.28 106.25,-1223.99"/>
<polygon fill="black" stroke="black" points="102.86,-1224.88 109.26,-1233.32 109.52,-1222.73 102.86,-1224.88"/>
</g>
<!-- Z&#45;&gt;G -->
<g id="edge6" class="edge">
<title>Z&#45;&gt;G</title>
<path fill="none" stroke="black" d="M30.78,-536.4C41.19,-597.84 83.76,-792 206,-792 206,-792 206,-792 478,-792 528.26,-792 583.93,-809.73 619.4,-823.41"/>
<polygon fill="black" stroke="black" points="617.74,-826.52 628.33,-826.95 620.32,-820.01 617.74,-826.52"/>
</g>
<!-- F -->
<g id="node9" class="node">
<title>F</title>
<polygon fill="none" stroke="black" points="234,-658 180,-658 180,-622 234,-622 234,-658"/>
<text xml:space="preserve" text-anchor="middle" x="207" y="-634.2" font-family="Helvetica,sans-Serif" font-size="14.00">F</text>
</g>
<!-- Z&#45;&gt;F -->
<g id="edge8" class="edge">
<title>Z&#45;&gt;F</title>
<path fill="none" stroke="black" d="M39.85,-536.32C51.11,-552.51 69.36,-575.85 90,-591 113.89,-608.53 145,-621.24 168.98,-629.31"/>
<polygon fill="black" stroke="black" points="167.76,-632.59 178.35,-632.33 169.91,-625.93 167.76,-632.59"/>
</g>
<!-- J -->
<g id="node10" class="node">
<title>J</title>
<polygon fill="none" stroke="black" points="234,-856 180,-856 180,-820 234,-820 234,-856"/>
<text xml:space="preserve" text-anchor="middle" x="207" y="-832.2" font-family="Helvetica,sans-Serif" font-size="14.00">J</text>
</g>
<!-- Z&#45;&gt;J -->
<g id="edge9" class="edge">
<title>Z&#45;&gt;J</title>
<path fill="none" stroke="black" d="M29.49,-536.3C34.51,-593.32 52.6,-766.4 90,-806 110.15,-827.34 143.12,-834.89 168.77,-837.37"/>
<polygon fill="black" stroke="black" points="168.23,-840.84 178.46,-838.07 168.73,-833.86 168.23,-840.84"/>
</g>
<!-- A -->
<g id="node11" class="node">
<title>A</title>
<polygon fill="none" stroke="black" points="414,-444 360,-444 360,-408 414,-408 414,-444"/>
<text xml:space="preserve" text-anchor="middle" x="387" y="-420.2" font-family="Helvetica,sans-Serif" font-size="14.00">A</text>
</g>
<!-- Z&#45;&gt;A -->
<g id="edge10" class="edge">
<title>Z&#45;&gt;A</title>
<path fill="none" stroke="black" d="M54.27,-502.89C65.2,-496.79 78.09,-489.83 90,-484 129.15,-464.83 137.77,-455.8 180,-445 237.44,-430.31 306.47,-426.66 348.25,-425.93"/>
<polygon fill="black" stroke="black" points="348.06,-429.43 358.02,-425.81 347.98,-422.43 348.06,-429.43"/>
</g>
<!-- X -->
<g id="node12" class="node">
<title>X</title>
<polygon fill="none" stroke="black" points="324,-536 270,-536 270,-500 324,-500 324,-536"/>
<text xml:space="preserve" text-anchor="middle" x="297" y="-512.2" font-family="Helvetica,sans-Serif" font-size="14.00">X</text>
</g>
<!-- Z&#45;&gt;X -->
<g id="edge11" class="edge">
<title>Z&#45;&gt;X</title>
<path fill="none" stroke="black" d="M54.18,-518C101.92,-518 203.23,-518 258.36,-518"/>
<polygon fill="black" stroke="black" points="258.2,-521.5 268.2,-518 258.2,-514.5 258.2,-521.5"/>
</g>
<!-- Z&#45;&gt;T -->
<g id="edge12" class="edge">
<title>Z&#45;&gt;T</title>
<path fill="none" stroke="black" d="M30.18,-499.56C41.59,-407.29 98.07,0 206,0 206,0 206,0 838,0 895.44,0 921.82,-9.41 954,-57 999.34,-124.06 1012.91,-712.83 1015.5,-852.41"/>
<polygon fill="black" stroke="black" points="1012,-852.35 1015.68,-862.29 1019,-852.22 1012,-852.35"/>
</g>
<!-- Z&#45;&gt;P -->
<g id="edge13" class="edge">
<title>Z&#45;&gt;P</title>
<path fill="none" stroke="black" d="M54.26,-511.21C84.5,-503.4 134.39,-490.51 168.66,-481.65"/>
<polygon fill="black" stroke="black" points="169.36,-485.08 178.16,-479.19 167.6,-478.31 169.36,-485.08"/>
</g>
<!-- U -->
<g id="node15" class="node">
<title>U</title>
<polygon fill="none" stroke="black" points="234,-208 180,-208 180,-172 234,-172 234,-208"/>
<text xml:space="preserve" text-anchor="middle" x="207" y="-184.2" font-family="Helvetica,sans-Serif" font-size="14.00">U</text>
</g>
<!-- Z&#45;&gt;U -->
<g id="edge14" class="edge">
<title>Z&#45;&gt;U</title>
<path fill="none" stroke="black" d="M37.82,-499.9C67.23,-445.7 154.75,-284.43 190.52,-218.53"/>
<polygon fill="black" stroke="black" points="193.57,-220.24 195.27,-209.78 187.42,-216.9 193.57,-220.24"/>
</g>
<!-- G&#45;&gt;V -->
<g id="edge95" class="edge">
<title>G&#45;&gt;V</title>
<path fill="none" stroke="black" d="M666.12,-857.27C681.48,-891.82 714.88,-966.97 733.25,-1008.31"/>
<polygon fill="black" stroke="black" points="730.02,-1009.67 737.28,-1017.39 736.42,-1006.83 730.02,-1009.67"/>
</g>
<!-- G&#45;&gt;R -->
<g id="edge94" class="edge">
<title>G&#45;&gt;R</title>
<path fill="none" stroke="black" d="M684.26,-845.34C714.5,-852.65 764.39,-864.7 798.66,-872.98"/>
<polygon fill="black" stroke="black" points="797.61,-876.33 808.16,-875.27 799.26,-869.52 797.61,-876.33"/>
</g>
<!-- F&#45;&gt;B -->
<g id="edge47" class="edge">
<title>F&#45;&gt;B</title>
<path fill="none" stroke="black" d="M214.61,-658.34C229.81,-700.48 267.32,-804.49 285.62,-855.23"/>
<polygon fill="black" stroke="black" points="282.23,-856.14 288.92,-864.36 288.82,-853.76 282.23,-856.14"/>
</g>
<!-- F&#45;&gt;G -->
<g id="edge48" class="edge">
<title>F&#45;&gt;G</title>
<path fill="none" stroke="black" d="M234.42,-649.96C278.83,-666.64 371.3,-701.14 450,-729 513.73,-751.56 536.46,-742.51 594,-778 608.89,-787.18 623.01,-800.55 633.99,-812.43"/>
<polygon fill="black" stroke="black" points="631.13,-814.48 640.4,-819.61 636.35,-809.82 631.13,-814.48"/>
</g>
<!-- F&#45;&gt;A -->
<g id="edge46" class="edge">
<title>F&#45;&gt;A</title>
<path fill="none" stroke="black" d="M234.23,-624.05C260.07,-607.19 299.18,-578.44 324,-545 348.94,-511.4 338.58,-493.95 360,-458 360.96,-456.39 361.99,-454.78 363.07,-453.18"/>
<polygon fill="black" stroke="black" points="365.62,-455.62 368.74,-445.5 359.99,-451.47 365.62,-455.62"/>
</g>
<!-- J&#45;&gt;B -->
<g id="edge59" class="edge">
<title>J&#45;&gt;B</title>
<path fill="none" stroke="black" d="M234.4,-851.8C242.32,-855.94 251.15,-860.56 259.59,-864.97"/>
<polygon fill="black" stroke="black" points="257.79,-867.98 268.27,-869.51 261.03,-861.77 257.79,-867.98"/>
</g>
<!-- J&#45;&gt;G -->
<g id="edge62" class="edge">
<title>J&#45;&gt;G</title>
<path fill="none" stroke="black" d="M234.22,-836.08C268.93,-833.72 332.02,-830 386,-830 386,-830 386,-830 478,-830 526.51,-830 582.36,-833.38 618.37,-835.99"/>
<polygon fill="black" stroke="black" points="618.04,-839.48 628.27,-836.73 618.56,-832.5 618.04,-839.48"/>
</g>
<!-- J&#45;&gt;T -->
<g id="edge63" class="edge">
<title>J&#45;&gt;T</title>
<path fill="none" stroke="black" d="M215.26,-819.85C226.47,-792.08 248.9,-737.46 270,-692 292.42,-643.68 302.86,-633.89 324,-585 342.58,-542.03 330.36,-522.24 360,-486 377.81,-464.23 392.02,-470.55 414,-453 431.93,-438.68 431.63,-429.74 450,-416 569.09,-326.95 597.29,-260 746,-260 746,-260 746,-260 838,-260 926.92,-260 921.32,-340.31 954,-423 1014.47,-576.01 1017.89,-777.65 1016.82,-852.43"/>
<polygon fill="black" stroke="black" points="1013.32,-852.14 1016.64,-862.2 1020.32,-852.27 1013.32,-852.14"/>
</g>
<!-- J&#45;&gt;E -->
<g id="edge60" class="edge">
<title>J&#45;&gt;E</title>
<path fill="none" stroke="black" d="M213.75,-856.32C222.5,-881.84 241.24,-928.37 270,-959 292.31,-982.77 324.63,-1001.08 349.49,-1012.85"/>
<polygon fill="black" stroke="black" points="347.72,-1015.88 358.27,-1016.86 350.63,-1009.52 347.72,-1015.88"/>
</g>
<!-- J&#45;&gt;R -->
<g id="edge65" class="edge">
<title>J&#45;&gt;R</title>
<path fill="none" stroke="black" d="M229.65,-856.46C231.16,-857.96 232.63,-859.48 234,-861 252.37,-881.31 245.95,-897.91 270,-911 302.37,-928.62 671.66,-920.55 684,-920 724.12,-918.22 735.29,-922.7 774,-912 782.49,-909.65 791.24,-906.17 799.38,-902.4"/>
<polygon fill="black" stroke="black" points="800.88,-905.57 808.31,-898.02 797.79,-899.28 800.88,-905.57"/>
</g>
<!-- J&#45;&gt;Y -->
<g id="edge64" class="edge">
<title>J&#45;&gt;Y</title>
<path fill="none" stroke="black" d="M230.42,-819.67C259.64,-796.04 312.6,-754.04 360,-721 386.18,-702.74 416.78,-683.58 439.97,-669.46"/>
<polygon fill="black" stroke="black" points="441.71,-672.51 448.45,-664.33 438.08,-666.52 441.71,-672.51"/>
</g>
<!-- J&#45;&gt;H -->
<g id="edge61" class="edge">
<title>J&#45;&gt;H</title>
<path fill="none" stroke="black" d="M218.24,-819.61C229.67,-799.8 249.29,-767.79 270,-743 291.17,-717.67 307.72,-720.72 324,-692 360.58,-627.46 319.93,-591.44 360,-529 361.93,-525.99 562.42,-374 566,-374 566,-374 566,-374 748,-374 801.21,-374 856.71,-403.08 891.3,-425.27"/>
<polygon fill="black" stroke="black" points="889.37,-428.19 899.64,-430.77 893.22,-422.34 889.37,-428.19"/>
</g>
<!-- A&#45;&gt;L -->
<g id="edge77" class="edge">
<title>A&#45;&gt;L</title>
<path fill="none" stroke="black" d="M392.63,-444.23C397.86,-464.81 406.59,-499.3 414,-529 429.36,-590.55 418.91,-614.07 450.46,-673.65"/>
<polygon fill="black" stroke="black" points="447.28,-675.13 455.17,-682.21 453.41,-671.76 447.28,-675.13"/>
</g>
<!-- I -->
<g id="node22" class="node">
<title>I</title>
<polygon fill="none" stroke="black" points="594,-438 540,-438 540,-402 594,-402 594,-438"/>
<text xml:space="preserve" text-anchor="middle" x="567" y="-414.2" font-family="Helvetica,sans-Serif" font-size="14.00">I</text>
</g>
<!-- A&#45;&gt;I -->
<g id="edge78" class="edge">
<title>A&#45;&gt;I</title>
<path fill="none" stroke="black" d="M414.28,-426.72C437.8,-427.2 473.22,-427.49 504,-426 511.91,-425.62 520.37,-424.96 528.41,-424.22"/>
<polygon fill="black" stroke="black" points="528.68,-427.71 538.29,-423.25 527.99,-420.75 528.68,-427.71"/>
</g>
<!-- X&#45;&gt;V -->
<g id="edge39" class="edge">
<title>X&#45;&gt;V</title>
<path fill="none" stroke="black" d="M319.23,-536.34C320.87,-537.89 322.48,-539.45 324,-541 341.25,-558.52 338.57,-570.95 360,-583 405.54,-608.61 423.76,-602 476,-602 476,-602 476,-602 568,-602 644.45,-602 649.42,-660.82 684,-729 731.58,-822.81 742.66,-950.07 745.23,-1007.15"/>
<polygon fill="black" stroke="black" points="741.73,-1007.16 745.61,-1017.02 748.72,-1006.9 741.73,-1007.16"/>
</g>
<!-- X&#45;&gt;A -->
<g id="edge38" class="edge">
<title>X&#45;&gt;A</title>
<path fill="none" stroke="black" d="M315.39,-499.82C328.32,-486.3 346.16,-467.65 360.68,-452.47"/>
<polygon fill="black" stroke="black" points="362.92,-455.19 367.3,-445.55 357.86,-450.35 362.92,-455.19"/>
</g>
<!-- X&#45;&gt;D -->
<g id="edge37" class="edge">
<title>X&#45;&gt;D</title>
<path fill="none" stroke="black" d="M324.4,-529.4C332.23,-532.78 340.96,-536.55 349.32,-540.16"/>
<polygon fill="black" stroke="black" points="347.66,-543.26 358.23,-544.01 350.43,-536.83 347.66,-543.26"/>
</g>
<!-- P&#45;&gt;L -->
<g id="edge36" class="edge">
<title>P&#45;&gt;L</title>
<path fill="none" stroke="black" d="M221.85,-490.28C233.85,-505.6 252.05,-527.69 270,-545 324.95,-598 397.62,-649.75 440.33,-678.6"/>
<polygon fill="black" stroke="black" points="438.24,-681.41 448.49,-684.07 442.14,-675.6 438.24,-681.41"/>
</g>
<!-- P&#45;&gt;B -->
<g id="edge34" class="edge">
<title>P&#45;&gt;B</title>
<path fill="none" stroke="black" d="M211.89,-490.23C225.72,-554.97 272.53,-774.12 289.66,-854.3"/>
<polygon fill="black" stroke="black" points="286.22,-854.98 291.73,-864.03 293.07,-853.52 286.22,-854.98"/>
</g>
<!-- P&#45;&gt;X -->
<g id="edge35" class="edge">
<title>P&#45;&gt;X</title>
<path fill="none" stroke="black" d="M234.4,-485.8C242.32,-489.94 251.15,-494.56 259.59,-498.97"/>
<polygon fill="black" stroke="black" points="257.79,-501.98 268.27,-503.51 261.03,-495.77 257.79,-501.98"/>
</g>
<!-- P&#45;&gt;T -->
<g id="edge31" class="edge">
<title>P&#45;&gt;T</title>
<path fill="none" stroke="black" d="M207.87,-453.59C208.62,-412.96 216.24,-314.96 270,-261 396.34,-134.18 476.99,-146 656,-146 656,-146 656,-146 838,-146 917.11,-146 922.73,-208.33 954,-281 999.06,-385.73 1012.3,-745.98 1015.27,-852.26"/>
<polygon fill="black" stroke="black" points="1011.77,-852.24 1015.53,-862.15 1018.77,-852.06 1011.77,-852.24"/>
</g>
<!-- P&#45;&gt;R -->
<g id="edge33" class="edge">
<title>P&#45;&gt;R</title>
<path fill="none" stroke="black" d="M207.91,-453.75C208.85,-416.02 216.99,-329.81 270,-292 392.8,-204.42 468.56,-309.23 594,-393 636.6,-421.45 646.07,-430.58 684,-465 700.99,-480.42 702.54,-487.11 720,-502 742.33,-521.04 758.2,-515.27 774,-540 807.23,-592.02 826.95,-779.36 833.53,-852.48"/>
<polygon fill="black" stroke="black" points="830.01,-852.42 834.37,-862.08 836.98,-851.81 830.01,-852.42"/>
</g>
<!-- P&#45;&gt;I -->
<g id="edge30" class="edge">
<title>P&#45;&gt;I</title>
<path fill="none" stroke="black" d="M208.94,-453.67C211.8,-419.51 223.36,-346.73 270,-315 357.55,-255.45 482.6,-346.66 537.88,-394.18"/>
<polygon fill="black" stroke="black" points="535.47,-396.72 545.3,-400.68 540.08,-391.46 535.47,-396.72"/>
</g>
<!-- P&#45;&gt;D -->
<g id="edge32" class="edge">
<title>P&#45;&gt;D</title>
<path fill="none" stroke="black" d="M234.38,-471.63C258.93,-472.33 295.85,-476.14 324,-491 340.92,-499.93 355.86,-515.23 366.84,-528.74"/>
<polygon fill="black" stroke="black" points="363.96,-530.75 372.85,-536.52 369.5,-526.47 363.96,-530.75"/>
</g>
<!-- U&#45;&gt;A -->
<g id="edge54" class="edge">
<title>U&#45;&gt;A</title>
<path fill="none" stroke="black" d="M209.75,-208.27C214,-243.45 227.86,-321.31 270,-369 290.84,-392.58 323.66,-407.43 349.08,-416.04"/>
<polygon fill="black" stroke="black" points="347.78,-419.3 358.37,-419 349.91,-412.63 347.78,-419.3"/>
</g>
<!-- U&#45;&gt;T -->
<g id="edge53" class="edge">
<title>U&#45;&gt;T</title>
<path fill="none" stroke="black" d="M217.98,-171.67C241.49,-131.24 304.52,-38 386,-38 386,-38 386,-38 838,-38 914.77,-38 923.3,-95.63 954,-166 1009.05,-292.2 1015.26,-732.92 1015.93,-852.1"/>
<polygon fill="black" stroke="black" points="1012.43,-852.01 1015.97,-862 1019.43,-851.98 1012.43,-852.01"/>
</g>
<!-- U&#45;&gt;R -->
<g id="edge50" class="edge">
<title>U&#45;&gt;R</title>
<path fill="none" stroke="black" d="M234.05,-189.28C257.73,-189.11 293.51,-190.08 324,-196 365.53,-204.06 375.43,-209.61 414,-227 597.54,-309.77 680.66,-323.6 774,-502 806.06,-563.28 826.8,-773.78 833.57,-852.22"/>
<polygon fill="black" stroke="black" points="830.08,-852.46 834.41,-862.13 837.06,-851.87 830.08,-852.46"/>
</g>
<!-- U&#45;&gt;I -->
<g id="edge52" class="edge">
<title>U&#45;&gt;I</title>
<path fill="none" stroke="black" d="M234.11,-193.26C258.13,-196.86 294.42,-203.82 324,-216 411.35,-251.96 435.97,-263.47 504,-329 523.05,-347.35 539.62,-372.45 550.83,-391.64"/>
<polygon fill="black" stroke="black" points="547.76,-393.33 555.74,-400.3 553.85,-389.87 547.76,-393.33"/>
</g>
<!-- U&#45;&gt;Y -->
<g id="edge49" class="edge">
<title>U&#45;&gt;Y</title>
<path fill="none" stroke="black" d="M234.39,-201.05C279.07,-221.22 369.14,-268.42 414,-338 444.02,-384.56 465.25,-550.47 472.88,-618.54"/>
<polygon fill="black" stroke="black" points="469.37,-618.63 473.94,-628.19 476.33,-617.86 469.37,-618.63"/>
</g>
<!-- M -->
<g id="node25" class="node">
<title>M</title>
<polygon fill="none" stroke="black" points="324,-360 270,-360 270,-324 324,-324 324,-360"/>
<text xml:space="preserve" text-anchor="middle" x="297" y="-336.2" font-family="Helvetica,sans-Serif" font-size="14.00">M</text>
</g>
<!-- U&#45;&gt;M -->
<g id="edge51" class="edge">
<title>U&#45;&gt;M</title>
<path fill="none" stroke="black" d="M218.61,-208.33C233.81,-234.58 261.9,-283.09 279.73,-313.89"/>
<polygon fill="black" stroke="black" points="276.55,-315.39 284.59,-322.29 282.61,-311.88 276.55,-315.39"/>
</g>
<!-- W -->
<g id="node16" class="node">
<title>W</title>
<polygon fill="none" stroke="black" points="144,-1153 90,-1153 90,-1117 144,-1117 144,-1153"/>
<text xml:space="preserve" text-anchor="middle" x="117" y="-1129.2" font-family="Helvetica,sans-Serif" font-size="14.00">W</text>
</g>
<!-- W&#45;&gt;V -->
<g id="edge15" class="edge">
<title>W&#45;&gt;V</title>
<path fill="none" stroke="black" d="M135.93,-1153.35C147.52,-1164.16 163.49,-1177.21 180,-1185 275.23,-1229.91 311.35,-1245.43 414,-1222 543.85,-1192.37 573.12,-1165.79 684,-1092 696.54,-1083.65 709.19,-1072.94 719.77,-1063.18"/>
<polygon fill="black" stroke="black" points="722.15,-1065.74 727.01,-1056.33 717.34,-1060.66 722.15,-1065.74"/>
</g>
<!-- W&#45;&gt;G -->
<g id="edge18" class="edge">
<title>W&#45;&gt;G</title>
<path fill="none" stroke="black" d="M144.45,-1132.01C198.12,-1125.08 322.49,-1104.56 414,-1055 462.32,-1028.83 577.58,-917.06 629.66,-865.39"/>
<polygon fill="black" stroke="black" points="632.05,-867.94 636.68,-858.41 627.12,-862.98 632.05,-867.94"/>
</g>
<!-- W&#45;&gt;X -->
<g id="edge16" class="edge">
<title>W&#45;&gt;X</title>
<path fill="none" stroke="black" d="M118.36,-1116.77C120.25,-1035.06 130.87,-702.63 180,-613 189.69,-595.31 230.16,-564.23 260.59,-542.45"/>
<polygon fill="black" stroke="black" points="262.3,-545.52 268.43,-536.89 258.25,-539.81 262.3,-545.52"/>
</g>
<!-- K -->
<g id="node17" class="node">
<title>K</title>
<polygon fill="none" stroke="black" points="234,-1176 180,-1176 180,-1140 234,-1140 234,-1176"/>
<text xml:space="preserve" text-anchor="middle" x="207" y="-1152.2" font-family="Helvetica,sans-Serif" font-size="14.00">K</text>
</g>
<!-- W&#45;&gt;K -->
<g id="edge17" class="edge">
<title>W&#45;&gt;K</title>
<path fill="none" stroke="black" d="M144.4,-1141.9C151.97,-1143.88 160.38,-1146.08 168.48,-1148.19"/>
<polygon fill="black" stroke="black" points="167.59,-1151.58 178.15,-1150.72 169.36,-1144.81 167.59,-1151.58"/>
</g>
<!-- K&#45;&gt;B -->
<g id="edge28" class="edge">
<title>K&#45;&gt;B</title>
<path fill="none" stroke="black" d="M213.91,-1139.6C228.91,-1092.9 268.54,-969.51 286.69,-913"/>
<polygon fill="black" stroke="black" points="289.93,-914.36 289.65,-903.76 283.26,-912.22 289.93,-914.36"/>
</g>
<!-- K&#45;&gt;V -->
<g id="edge29" class="edge">
<title>K&#45;&gt;V</title>
<path fill="none" stroke="black" d="M234.37,-1172.33C245.09,-1177.4 257.82,-1182.46 270,-1185 293.5,-1189.89 300.34,-1189.03 324,-1185 472.15,-1159.77 637.52,-1088.08 709.38,-1054.61"/>
<polygon fill="black" stroke="black" points="710.75,-1057.84 718.32,-1050.42 707.78,-1051.5 710.75,-1057.84"/>
</g>
<!-- K&#45;&gt;N -->
<g id="edge27" class="edge">
<title>K&#45;&gt;N</title>
<path fill="none" stroke="black" d="M234.4,-1158C241.89,-1158 250.18,-1158 258.2,-1158"/>
<polygon fill="black" stroke="black" points="258.1,-1161.5 268.1,-1158 258.1,-1154.5 258.1,-1161.5"/>
</g>
<!-- C -->
<g id="node18" class="node">
<title>C</title>
<polygon fill="none" stroke="black" points="144,-582 90,-582 90,-546 144,-546 144,-582"/>
<text xml:space="preserve" text-anchor="middle" x="117" y="-558.2" font-family="Helvetica,sans-Serif" font-size="14.00">C</text>
</g>
<!-- C&#45;&gt;X -->
<g id="edge19" class="edge">
<title>C&#45;&gt;X</title>
<path fill="none" stroke="black" d="M144.26,-557.21C174.5,-549.4 224.39,-536.51 258.66,-527.65"/>
<polygon fill="black" stroke="black" points="259.36,-531.08 268.16,-525.19 257.6,-524.31 259.36,-531.08"/>
</g>
<!-- C&#45;&gt;P -->
<g id="edge21" class="edge">
<title>C&#45;&gt;P</title>
<path fill="none" stroke="black" d="M135.39,-545.82C148.32,-532.3 166.16,-513.65 180.68,-498.47"/>
<polygon fill="black" stroke="black" points="182.92,-501.19 187.3,-491.55 177.86,-496.35 182.92,-501.19"/>
</g>
<!-- C&#45;&gt;E -->
<g id="edge20" class="edge">
<title>C&#45;&gt;E</title>
<path fill="none" stroke="black" d="M119.18,-582.42C122.82,-630.69 136.39,-764.11 180,-865 207.59,-928.84 213.62,-952.28 270,-993 293.15,-1009.72 324.38,-1018.55 348.6,-1023.16"/>
<polygon fill="black" stroke="black" points="347.92,-1026.59 358.37,-1024.84 349.11,-1019.69 347.92,-1026.59"/>
</g>
<!-- E&#45;&gt;L -->
<g id="edge79" class="edge">
<title>E&#45;&gt;L</title>
<path fill="none" stroke="black" d="M392.98,-1009.54C407.6,-955.41 450.41,-796.79 468.16,-731.05"/>
<polygon fill="black" stroke="black" points="471.45,-732.29 470.68,-721.72 464.69,-730.46 471.45,-732.29"/>
</g>
<!-- E&#45;&gt;T -->
<g id="edge80" class="edge">
<title>E&#45;&gt;T</title>
<path fill="none" stroke="black" d="M414.33,-1040.31C465.78,-1062.9 583.42,-1107.28 684,-1092 818.87,-1071.5 848.85,-1032.92 954,-946 967.62,-934.74 981.44,-920.78 992.56,-908.77"/>
<polygon fill="black" stroke="black" points="994.98,-911.32 999.12,-901.56 989.8,-906.6 994.98,-911.32"/>
</g>
<!-- E&#45;&gt;Y -->
<g id="edge81" class="edge">
<title>E&#45;&gt;Y</title>
<path fill="none" stroke="black" d="M387.56,-1009.58C387,-956.61 390.47,-800.31 450.68,-676.36"/>
<polygon fill="black" stroke="black" points="453.67,-678.22 455.02,-667.72 447.41,-675.08 453.67,-678.22"/>
</g>
<!-- R&#45;&gt;T -->
<g id="edge100" class="edge">
<title>R&#45;&gt;T</title>
<path fill="none" stroke="black" d="M864.26,-882C894.37,-882 943.96,-882 978.21,-882"/>
<polygon fill="black" stroke="black" points="978.11,-885.5 988.11,-882 978.11,-878.5 978.11,-885.5"/>
</g>
<!-- R&#45;&gt;H -->
<g id="edge99" class="edge">
<title>R&#45;&gt;H</title>
<path fill="none" stroke="black" d="M841.73,-863.71C855.44,-796.36 903.23,-561.78 920.07,-479.11"/>
<polygon fill="black" stroke="black" points="923.45,-480.03 922.02,-469.53 916.6,-478.63 923.45,-480.03"/>
</g>
<!-- N&#45;&gt;G -->
<g id="edge44" class="edge">
<title>N&#45;&gt;G</title>
<path fill="none" stroke="black" d="M324.25,-1154.45C348.7,-1150.31 385.56,-1141.91 414,-1126 509.5,-1072.57 527.77,-1045.11 594,-958 615.49,-929.73 633.37,-892.93 644.32,-867.79"/>
<polygon fill="black" stroke="black" points="647.43,-869.42 648.13,-858.85 640.99,-866.68 647.43,-869.42"/>
</g>
<!-- N&#45;&gt;T -->
<g id="edge42" class="edge">
<title>N&#45;&gt;T</title>
<path fill="none" stroke="black" d="M312.6,-1176.26C324.34,-1190.08 341.81,-1208.87 360,-1222 514.42,-1333.45 555.57,-1408 746,-1408 746,-1408 746,-1408 838,-1408 943.58,-1408 998.8,-1022.92 1012.54,-911.73"/>
<polygon fill="black" stroke="black" points="1016,-912.26 1013.73,-901.91 1009.05,-911.42 1016,-912.26"/>
</g>
<!-- N&#45;&gt;E -->
<g id="edge40" class="edge">
<title>N&#45;&gt;E</title>
<path fill="none" stroke="black" d="M308.8,-1139.51C320.7,-1119.49 340.73,-1086.81 360,-1060 361.12,-1058.44 362.29,-1056.86 363.49,-1055.27"/>
<polygon fill="black" stroke="black" points="366.16,-1057.55 369.56,-1047.51 360.64,-1053.23 366.16,-1057.55"/>
</g>
<!-- N&#45;&gt;R -->
<g id="edge41" class="edge">
<title>N&#45;&gt;R</title>
<path fill="none" stroke="black" d="M324.22,-1174.62C370.91,-1202.58 472.37,-1256 566,-1256 566,-1256 566,-1256 658,-1256 810.3,-1256 832.43,-1000.03 835.53,-911.61"/>
<polygon fill="black" stroke="black" points="839.03,-911.9 835.81,-901.8 832.03,-911.7 839.03,-911.9"/>
</g>
<!-- N&#45;&gt;D -->
<g id="edge45" class="edge">
<title>N&#45;&gt;D</title>
<path fill="none" stroke="black" d="M300.68,-1139.65C313.22,-1053.89 366.09,-692.19 381.67,-585.65"/>
<polygon fill="black" stroke="black" points="385.09,-586.4 383.08,-576 378.17,-585.38 385.09,-586.4"/>
</g>
<!-- N&#45;&gt;Y -->
<g id="edge43" class="edge">
<title>N&#45;&gt;Y</title>
<path fill="none" stroke="black" d="M324.43,-1142.91C352.03,-1125.58 394.01,-1094.39 414,-1055 489.12,-906.97 383.91,-832.41 450.81,-676.63"/>
<polygon fill="black" stroke="black" points="453.95,-678.19 454.85,-667.63 447.56,-675.32 453.95,-678.19"/>
</g>
<!-- I&#45;&gt;G -->
<g id="edge91" class="edge">
<title>I&#45;&gt;G</title>
<path fill="none" stroke="black" d="M571.84,-438.27C585.63,-503.96 632.79,-728.51 649.81,-809.54"/>
<polygon fill="black" stroke="black" points="646.35,-810.08 651.83,-819.15 653.2,-808.64 646.35,-810.08"/>
</g>
<!-- I&#45;&gt;R -->
<g id="edge93" class="edge">
<title>I&#45;&gt;R</title>
<path fill="none" stroke="black" d="M591.22,-438.24C643.84,-479.67 768.04,-578.02 774,-588 825.38,-673.96 834.56,-796.34 835.95,-852.17"/>
<polygon fill="black" stroke="black" points="832.45,-852.19 836.11,-862.13 839.44,-852.07 832.45,-852.19"/>
</g>
<!-- I&#45;&gt;H -->
<g id="edge92" class="edge">
<title>I&#45;&gt;H</title>
<path fill="none" stroke="black" d="M594.27,-419.94C646.11,-420.16 765.11,-422.26 864,-436 872.02,-437.11 880.54,-438.74 888.61,-440.49"/>
<polygon fill="black" stroke="black" points="887.63,-443.86 898.15,-442.68 889.19,-437.03 887.63,-443.86"/>
</g>
<!-- D&#45;&gt;V -->
<g id="edge87" class="edge">
<title>D&#45;&gt;V</title>
<path fill="none" stroke="black" d="M414.08,-549.49C471.58,-536.86 610.02,-516.17 684,-588 743.91,-646.17 747.1,-916.52 746.44,-1007.23"/>
<polygon fill="black" stroke="black" points="742.94,-1007.02 746.34,-1017.05 749.94,-1007.08 742.94,-1007.02"/>
</g>
<!-- D&#45;&gt;I -->
<g id="edge85" class="edge">
<title>D&#45;&gt;I</title>
<path fill="none" stroke="black" d="M412.01,-537.66C443.19,-513.83 497.79,-472.12 532.89,-445.3"/>
<polygon fill="black" stroke="black" points="534.78,-448.26 540.6,-439.4 530.53,-442.69 534.78,-448.26"/>
</g>
<!-- D&#45;&gt;Y -->
<g id="edge86" class="edge">
<title>D&#45;&gt;Y</title>
<path fill="none" stroke="black" d="M405.39,-574.18C418.32,-587.7 436.16,-606.35 450.68,-621.53"/>
<polygon fill="black" stroke="black" points="447.86,-623.65 457.3,-628.45 452.92,-618.81 447.86,-623.65"/>
</g>
<!-- Y&#45;&gt;G -->
<g id="edge89" class="edge">
<title>Y&#45;&gt;G</title>
<path fill="none" stroke="black" d="M504.04,-656.49C529.73,-665.99 568.72,-683.62 594,-710 621.35,-738.54 638.65,-781.43 647.83,-809.8"/>
<polygon fill="black" stroke="black" points="644.43,-810.66 650.72,-819.19 651.12,-808.6 644.43,-810.66"/>
</g>
<!-- Y&#45;&gt;R -->
<g id="edge90" class="edge">
<title>Y&#45;&gt;R</title>
<path fill="none" stroke="black" d="M504.36,-654.58C545.22,-665.57 625.24,-690.36 684,-729 737.76,-764.35 787.84,-821.18 814.95,-854.73"/>
<polygon fill="black" stroke="black" points="812.06,-856.72 821.03,-862.35 817.53,-852.35 812.06,-856.72"/>
</g>
<!-- Y&#45;&gt;I -->
<g id="edge88" class="edge">
<title>Y&#45;&gt;I</title>
<path fill="none" stroke="black" d="M481.42,-629.53C488.58,-593.66 507.23,-512.79 540,-452 540.79,-450.54 541.64,-449.09 542.55,-447.65"/>
<polygon fill="black" stroke="black" points="545.26,-449.87 548.2,-439.69 539.55,-445.82 545.26,-449.87"/>
</g>
<!-- M&#45;&gt;L -->
<g id="edge56" class="edge">
<title>M&#45;&gt;L</title>
<path fill="none" stroke="black" d="M324.45,-351.62C355.1,-363.33 402.86,-383.45 414,-399 483.96,-496.6 401.52,-559.73 450.75,-673.28"/>
<polygon fill="black" stroke="black" points="447.56,-674.72 454.94,-682.33 453.91,-671.78 447.56,-674.72"/>
</g>
<!-- M&#45;&gt;D -->
<g id="edge58" class="edge">
<title>M&#45;&gt;D</title>
<path fill="none" stroke="black" d="M305.5,-360.25C320.83,-397.52 355.83,-482.64 374.22,-527.36"/>
<polygon fill="black" stroke="black" points="370.9,-528.48 377.94,-536.4 377.37,-525.82 370.9,-528.48"/>
</g>
<!-- M&#45;&gt;Y -->
<g id="edge57" class="edge">
<title>M&#45;&gt;Y</title>
<path fill="none" stroke="black" d="M324.34,-339.85C350.64,-339.24 390.44,-342.73 414,-366 449.6,-401.16 467.38,-552.97 473.48,-618.12"/>
<polygon fill="black" stroke="black" points="470,-618.43 474.38,-628.07 476.97,-617.8 470,-618.43"/>
</g>
<!-- M&#45;&gt;H -->
<g id="edge55" class="edge">
<title>M&#45;&gt;H</title>
<path fill="none" stroke="black" d="M321.17,-323.51C365.78,-289.85 467.87,-222 566,-222 566,-222 566,-222 748,-222 847.78,-222 899.9,-359.35 918.23,-420.84"/>
<polygon fill="black" stroke="black" points="914.82,-421.63 920.94,-430.27 921.55,-419.69 914.82,-421.63"/>
</g>
<!-- H&#45;&gt;T -->
<g id="edge101" class="edge">
<title>H&#45;&gt;T</title>
<path fill="none" stroke="black" d="M931.73,-468.29C945.44,-535.64 993.23,-770.22 1010.07,-852.89"/>
<polygon fill="black" stroke="black" points="1006.6,-853.37 1012.02,-862.47 1013.45,-851.97 1006.6,-853.37"/>
</g>
</g>
</svg>
